<?xml version="1.0" standalone="no"?>
<!DOCTYPE svg PUBLIC "-//W3C//DTD SVG 20010904//EN"
 "http://www.w3.org/TR/2001/REC-SVG-20010904/DTD/svg10.dtd">
<svg version="1.0" xmlns="http://www.w3.org/2000/svg"
 width="992.000000pt" height="309.000000pt" viewBox="0 0 992.000000 309.000000"
 preserveAspectRatio="xMidYMid meet">
<g transform="translate(0.000000,309.000000) scale(0.100000,-0.100000)"
fill="#ffffff" stroke="none">
<path d="M634 3077 c-2 -7 -3 -69 -2 -138 l3 -124 633 -3 632 -2 0 140 0 140
-630 0 c-510 0 -632 -3 -636 -13z"/>
<path d="M1102 2530 c-469 -66 -867 -387 -1027 -830 -165 -459 -48 -979 300
-1325 185 -185 427 -311 685 -356 105 -19 345 -16 445 5 459 97 820 412 966
844 122 361 71 771 -133 1084 -197 300 -470 488 -823 564 -84 18 -325 26 -413
14z m368 -285 c296 -62 543 -252 684 -524 25 -48 57 -127 73 -177 25 -83 27
-101 27 -269 0 -205 -13 -271 -82 -419 -54 -115 -112 -198 -201 -287 -126
-126 -277 -213 -451 -261 -74 -20 -107 -23 -255 -22 -195 0 -264 15 -410 83
-108 50 -184 101 -263 176 -417 389 -424 1040 -15 1436 172 168 337 244 608
283 48 7 215 -4 285 -19z"/>
<path d="M2782 1698 l3 -793 27 -96 c58 -212 136 -348 282 -494 115 -114 214
-178 359 -233 233 -88 512 -103 752 -42 460 118 754 479 795 977 5 65 10 423
10 796 l0 677 -140 0 -139 0 -3 -762 c-3 -754 -4 -764 -26 -842 -47 -169 -146
-327 -265 -426 -70 -57 -211 -130 -302 -155 -94 -26 -313 -31 -416 -10 -326
66 -552 274 -641 590 -22 79 -23 87 -26 843 l-3 762 -135 0 -135 0 3 -792z"/>
<path d="M5280 1270 l0 -1220 135 0 135 0 0 530 0 530 448 0 449 0 288 -530
287 -530 145 0 145 0 -25 42 c-101 177 -560 1014 -561 1025 -1 9 27 25 70 42
198 77 353 252 410 461 24 89 25 272 1 360 -30 114 -84 207 -168 292 -64 64
-92 84 -180 126 -187 90 -143 86 -906 90 l-673 3 0 -1221z m1327 968 c134 -41
242 -118 298 -214 60 -102 71 -269 26 -387 -46 -118 -152 -213 -290 -260 -64
-21 -80 -22 -578 -25 l-513 -3 0 456 0 456 503 -4 c418 -3 511 -6 554 -19z"/>
<path d="M8037 1377 c-279 -611 -530 -1160 -557 -1219 l-49 -108 143 0 143 0
133 303 c73 166 138 308 143 315 7 9 156 12 682 12 526 0 675 -3 682 -12 6 -7
70 -149 143 -316 l133 -302 143 0 143 0 -49 108 c-27 59 -278 608 -557 1219
l-508 1113 -130 0 -130 -1 -508 -1112z m932 161 c154 -339 281 -619 281 -622
0 -3 -259 -6 -576 -6 -545 0 -576 1 -570 18 33 85 572 1240 577 1234 3 -4 133
-285 288 -624z"/>
</g>
</svg>
