<?xml version="1.0" standalone="no"?>
<!DOCTYPE svg PUBLIC "-//W3C//DTD SVG 20010904//EN"
 "http://www.w3.org/TR/2001/REC-SVG-20010904/DTD/svg10.dtd">
<svg version="1.0" xmlns="http://www.w3.org/2000/svg"
 width="225.000000pt" height="225.000000pt" viewBox="0 0 225.000000 225.000000"
 preserveAspectRatio="xMidYMid meet">
<g transform="translate(0.000000,225.000000) scale(0.050000,-0.050000)"
fill="#000000" stroke="none">
<path d="M1740 3370 l0 -110 510 0 510 0 0 110 0 110 -510 0 -510 0 0 -110z"/>
<path d="M1966 3002 c-715 -205 -965 -1110 -457 -1657 623 -671 1751 -230
1751 685 0 669 -649 1156 -1294 972z m624 -252 c599 -287 599 -1148 0 -1441
-179 -88 -501 -88 -680 0 -641 314 -580 1263 95 1483 148 48 441 27 585 -42z"/>
</g>
</svg>
